<svg version="1.2" xmlns="http://www.w3.org/2000/svg" viewBox="0 0 1546 1545" width="1546" height="1545">
	<title>Air_New_Zealand_logo-svg</title>
	<style>
		.s0 { fill: #231f20 } 
	</style>
	<g id="layer1">
		<path id="koru" class="s0" d="m1260.6 254c0 121.2-81.7 246.6-257.5 246.6-91.5 0-170.3-62-170.3-148.8 0-42.3 34.4-105.1 116.4-105.1 79.2 0 99.4 82.2 93.2 112.4 0 0 59.6-19.9 59.6-90.5 0-71.4-65.9-124.1-149.9-124.1-127.8 0-253.3 112.7-301.2 157.6-190.7 180.4-279.3 302.2-279.3 302.2h1174.2l-65.5 145.9h-1455.1c0 0 172.6-216.2 499.1-535.6 91.8-90.2 253.3-214.6 427.8-214.6 189.6 0 308.5 131.6 308.5 254zm184.8 572.1l-65.5 147.4h-1148c0 0 6 54.2 93.1 238 74.1 156.9 181.5 195.5 254.6 195.5 91.6 0 131-59.9 131-106.5 0-48.5-29.1-67.1-29.1-67.1 0 0-7.1 75.9-101.9 75.9-60.1 0-107.6-52.6-107.6-109.5 0-24.7 27.3-122.6 157.1-122.6 121.8 0 224.1 88.4 224.1 223.3 0 119.2-110.4 243.7-273.6 243.7-173.6 0-315.8-108.3-401.6-287.5-101.1-210.3-177.5-430.6-177.5-430.6z"/>
	</g>
</svg>