<svg xmlns="http://www.w3.org/2000/svg" width="174" height="312" fill="none"><path fill="url(#a)" d="M140.556 312H33.308a3.94 3.94 0 0 1 0-7.88h107.248a3.94 3.94 0 0 1 0 7.88"/><path fill="url(#b)" d="M86.932 312a3.94 3.94 0 0 1-3.94-3.94v-68.879a3.94 3.94 0 0 1 7.88 0v68.879a3.94 3.94 0 0 1-3.94 3.94"/><path fill="url(#c)" d="M87.469 207.88h-1.073c-31.446 0-57.028-25.583-57.028-57.028V57.028C29.368 25.583 54.95 0 86.396 0h1.073c31.445 0 57.027 25.583 57.027 57.028v93.824c0 31.445-25.582 57.028-57.027 57.028m-1.073-200c-27.1 0-49.148 22.048-49.148 49.148v93.824c0 27.1 22.048 49.148 49.148 49.148h1.073c27.1 0 49.148-22.048 49.148-49.148V57.028c0-27.1-22.048-49.148-49.148-49.148z"/><path fill="url(#d)" d="M87.469 237.247h-1.073c-23.077 0-44.773-8.986-61.091-25.304C8.987 195.624 0 173.929 0 150.852a3.94 3.94 0 0 1 7.88 0c0 20.971 8.167 40.688 22.997 55.518s34.547 22.997 55.519 22.997h1.072c20.972 0 40.69-8.167 55.519-22.997s22.997-34.547 22.997-55.518a3.94 3.94 0 0 1 7.88 0c0 23.076-8.987 44.772-25.305 61.09s-38.014 25.306-61.09 25.305"/><path fill="url(#e)" d="M60.824 99.72a4.722 4.722 0 1 0-8.726-3.615 4.722 4.722 0 0 0 8.726 3.615"/><path fill="url(#f)" d="M76.887 102.633a4.723 4.723 0 1 0-.001-9.446 4.723 4.723 0 0 0 0 9.446"/><path fill="url(#g)" d="M102.073 97.91a4.722 4.722 0 1 0-9.445 0 4.722 4.722 0 0 0 9.445 0"/><path fill="url(#h)" d="M117.814 102.633a4.723 4.723 0 1 0-.001-9.445 4.723 4.723 0 0 0 .001 9.445"/><path fill="url(#i)" d="M45.995 92.598a4.722 4.722 0 1 0 0-9.445 4.722 4.722 0 0 0 0 9.445"/><path fill="url(#j)" d="M67.555 92.378a4.722 4.722 0 1 0-2.17-9.192 4.722 4.722 0 0 0 2.17 9.191"/><path fill="url(#k)" d="M91.322 89.684a4.722 4.722 0 1 0-8.726-3.614 4.722 4.722 0 0 0 8.726 3.614"/><path fill="url(#l)" d="M107.385 92.598a4.723 4.723 0 1 0 0-9.446 4.723 4.723 0 0 0 0 9.446"/><path fill="url(#m)" d="M127.849 92.598a4.722 4.722 0 1 0 0-9.444 4.722 4.722 0 0 0 0 9.444"/><path fill="url(#n)" d="M45.995 112.077a4.722 4.722 0 1 0 0-9.444 4.722 4.722 0 0 0 0 9.444"/><path fill="url(#o)" d="M69.785 110.692a4.722 4.722 0 1 0-6.678-6.678 4.722 4.722 0 0 0 6.678 6.678"/><path fill="url(#p)" d="M91.644 107.355a4.722 4.722 0 1 0-9.444 0 4.722 4.722 0 0 0 9.444 0"/><path fill="url(#q)" d="M107.385 112.077a4.723 4.723 0 1 0 0-9.445 4.723 4.723 0 0 0 0 9.445"/><path fill="url(#r)" d="M127.849 112.077a4.722 4.722 0 1 0 0-9.444 4.722 4.722 0 0 0 0 9.444"/><path fill="url(#s)" d="M57.521 82.932a4.722 4.722 0 1 0-2.17-9.192 4.722 4.722 0 0 0 2.17 9.192"/><path fill="url(#t)" d="M76.887 83.153a4.722 4.722 0 1 0 0-9.445 4.722 4.722 0 0 0 0 9.445"/><path fill="url(#u)" d="M97.35 83.153a4.723 4.723 0 1 0 0-9.445 4.723 4.723 0 0 0 0 9.445"/><path fill="url(#v)" d="M117.814 83.153a4.722 4.722 0 1 0 0-9.444 4.722 4.722 0 0 0 0 9.444"/><path fill="url(#w)" d="M45.995 73.118a4.722 4.722 0 1 0 0-9.445 4.722 4.722 0 0 0 0 9.445"/><path fill="url(#x)" d="M71.181 68.396a4.723 4.723 0 1 0-9.445 0 4.723 4.723 0 0 0 9.445 0"/><path fill="url(#y)" d="M91.322 70.205a4.722 4.722 0 1 0-8.726-3.615 4.722 4.722 0 0 0 8.726 3.614"/><path fill="url(#z)" d="M107.385 73.118a4.723 4.723 0 1 0 0-9.446 4.723 4.723 0 0 0 0 9.446"/><path fill="url(#A)" d="M127.849 73.118a4.722 4.722 0 1 0 0-9.444 4.722 4.722 0 0 0 0 9.444"/><path fill="url(#B)" d="M59.75 62.289a4.722 4.722 0 1 0-6.678-6.679 4.722 4.722 0 0 0 6.678 6.679"/><path fill="url(#C)" d="M76.887 63.674a4.722 4.722 0 1 0 0-9.445 4.722 4.722 0 0 0 0 9.444"/><path fill="url(#D)" d="M97.35 63.674a4.723 4.723 0 1 0 0-9.446 4.723 4.723 0 0 0 0 9.445"/><path fill="url(#E)" d="M117.814 63.674a4.722 4.722 0 1 0 0-9.445 4.722 4.722 0 0 0 0 9.444"/><path fill="url(#F)" d="M45.995 53.639a4.722 4.722 0 1 0 0-9.445 4.722 4.722 0 0 0 0 9.445"/><path fill="url(#G)" d="M67.245 53.577a4.723 4.723 0 1 0-1.514-9.323 4.723 4.723 0 0 0 1.514 9.323"/><path fill="url(#H)" d="M91.322 50.725a4.723 4.723 0 1 0-8.727-3.615 4.723 4.723 0 0 0 8.727 3.615"/><path fill="url(#I)" d="M107.385 53.639a4.723 4.723 0 1 0 0-9.446 4.723 4.723 0 0 0 0 9.446"/><path fill="url(#J)" d="M127.849 53.639a4.722 4.722 0 1 0 0-9.445 4.722 4.722 0 0 0 0 9.445"/><path fill="url(#K)" d="M60.823 41.28a4.723 4.723 0 1 0-8.726-3.614 4.723 4.723 0 0 0 8.726 3.615"/><path fill="url(#L)" d="M76.887 44.194a4.722 4.722 0 1 0 0-9.444 4.722 4.722 0 0 0 0 9.444"/><path fill="url(#M)" d="M97.35 44.194a4.723 4.723 0 1 0 0-9.445 4.723 4.723 0 0 0 0 9.445"/><path fill="url(#N)" d="M76.887 24.715a4.722 4.722 0 1 0 0-9.445 4.722 4.722 0 0 0 0 9.445"/><path fill="url(#O)" d="M97.35 24.715a4.723 4.723 0 1 0 0-9.446 4.723 4.723 0 0 0 0 9.446"/><path fill="url(#P)" d="M117.814 44.194a4.722 4.722 0 1 0 0-9.444 4.722 4.722 0 0 0 0 9.444"/><path fill="url(#Q)" d="M71.181 29.437a4.722 4.722 0 1 0-9.444 0 4.722 4.722 0 0 0 9.444 0"/><path fill="url(#R)" d="M88.016 33.94a4.722 4.722 0 1 0-2.17-9.192 4.722 4.722 0 0 0 2.17 9.192"/><path fill="url(#S)" d="M107.385 34.16a4.723 4.723 0 1 0 0-9.446 4.723 4.723 0 0 0 0 9.446"/><defs><linearGradient id="a" x1="136.6" x2="136.819" y1="303.307" y2="310.94" gradientUnits="userSpaceOnUse"><stop stop-color="#5EF7FF"/><stop offset="1" stop-color="#AA50FB"/></linearGradient><linearGradient id="b" x1="90.332" x2="107.512" y1="227.325" y2="231.529" gradientUnits="userSpaceOnUse"><stop stop-color="#5EF7FF"/><stop offset="1" stop-color="#AA50FB"/></linearGradient><linearGradient id="c" x1="136.6" x2="233.599" y1="-21.438" y2="106.614" gradientUnits="userSpaceOnUse"><stop stop-color="#5EF7FF"/><stop offset="1" stop-color="#AA50FB"/></linearGradient><linearGradient id="d" x1="161.939" x2="180.163" y1="137.596" y2="221.199" gradientUnits="userSpaceOnUse"><stop stop-color="#5EF7FF"/><stop offset="1" stop-color="#AA50FB"/></linearGradient><linearGradient id="e" x1="52.757" x2="61.201" y1="91.968" y2="91.93" gradientUnits="userSpaceOnUse"><stop stop-color="#5EF7FF"/><stop offset="1" stop-color="#AA50FB"/></linearGradient><linearGradient id="f" x1="80.962" x2="84.228" y1="92.214" y2="100" gradientUnits="userSpaceOnUse"><stop stop-color="#5EF7FF"/><stop offset="1" stop-color="#AA50FB"/></linearGradient><linearGradient id="g" x1="101.425" x2="104.691" y1="92.214" y2="100" gradientUnits="userSpaceOnUse"><stop stop-color="#5EF7FF"/><stop offset="1" stop-color="#AA50FB"/></linearGradient><linearGradient id="h" x1="121.888" x2="125.155" y1="92.214" y2="100" gradientUnits="userSpaceOnUse"><stop stop-color="#5EF7FF"/><stop offset="1" stop-color="#AA50FB"/></linearGradient><linearGradient id="i" x1="50.07" x2="53.336" y1="82.179" y2="89.965" gradientUnits="userSpaceOnUse"><stop stop-color="#5EF7FF"/><stop offset="1" stop-color="#AA50FB"/></linearGradient><linearGradient id="j" x1="69.126" x2="74.094" y1="81.302" y2="88.128" gradientUnits="userSpaceOnUse"><stop stop-color="#5EF7FF"/><stop offset="1" stop-color="#AA50FB"/></linearGradient><linearGradient id="k" x1="83.256" x2="91.699" y1="81.933" y2="81.894" gradientUnits="userSpaceOnUse"><stop stop-color="#5EF7FF"/><stop offset="1" stop-color="#AA50FB"/></linearGradient><linearGradient id="l" x1="111.46" x2="114.726" y1="82.179" y2="89.965" gradientUnits="userSpaceOnUse"><stop stop-color="#5EF7FF"/><stop offset="1" stop-color="#AA50FB"/></linearGradient><linearGradient id="m" x1="131.923" x2="135.19" y1="82.179" y2="89.965" gradientUnits="userSpaceOnUse"><stop stop-color="#5EF7FF"/><stop offset="1" stop-color="#AA50FB"/></linearGradient><linearGradient id="n" x1="50.07" x2="53.336" y1="101.659" y2="109.444" gradientUnits="userSpaceOnUse"><stop stop-color="#5EF7FF"/><stop offset="1" stop-color="#AA50FB"/></linearGradient><linearGradient id="o" x1="65.299" x2="73.114" y1="100.444" y2="103.639" gradientUnits="userSpaceOnUse"><stop stop-color="#5EF7FF"/><stop offset="1" stop-color="#AA50FB"/></linearGradient><linearGradient id="p" x1="90.996" x2="94.263" y1="101.659" y2="109.444" gradientUnits="userSpaceOnUse"><stop stop-color="#5EF7FF"/><stop offset="1" stop-color="#AA50FB"/></linearGradient><linearGradient id="q" x1="111.46" x2="114.726" y1="101.659" y2="109.444" gradientUnits="userSpaceOnUse"><stop stop-color="#5EF7FF"/><stop offset="1" stop-color="#AA50FB"/></linearGradient><linearGradient id="r" x1="131.923" x2="135.19" y1="101.659" y2="109.444" gradientUnits="userSpaceOnUse"><stop stop-color="#5EF7FF"/><stop offset="1" stop-color="#AA50FB"/></linearGradient><linearGradient id="s" x1="59.093" x2="64.061" y1="71.856" y2="78.683" gradientUnits="userSpaceOnUse"><stop stop-color="#5EF7FF"/><stop offset="1" stop-color="#AA50FB"/></linearGradient><linearGradient id="t" x1="80.962" x2="84.228" y1="72.734" y2="80.52" gradientUnits="userSpaceOnUse"><stop stop-color="#5EF7FF"/><stop offset="1" stop-color="#AA50FB"/></linearGradient><linearGradient id="u" x1="101.425" x2="104.691" y1="72.734" y2="80.52" gradientUnits="userSpaceOnUse"><stop stop-color="#5EF7FF"/><stop offset="1" stop-color="#AA50FB"/></linearGradient><linearGradient id="v" x1="121.888" x2="125.155" y1="72.734" y2="80.52" gradientUnits="userSpaceOnUse"><stop stop-color="#5EF7FF"/><stop offset="1" stop-color="#AA50FB"/></linearGradient><linearGradient id="w" x1="50.07" x2="53.336" y1="62.699" y2="70.485" gradientUnits="userSpaceOnUse"><stop stop-color="#5EF7FF"/><stop offset="1" stop-color="#AA50FB"/></linearGradient><linearGradient id="x" x1="70.534" x2="73.8" y1="62.699" y2="70.485" gradientUnits="userSpaceOnUse"><stop stop-color="#5EF7FF"/><stop offset="1" stop-color="#AA50FB"/></linearGradient><linearGradient id="y" x1="83.255" x2="91.699" y1="62.453" y2="62.415" gradientUnits="userSpaceOnUse"><stop stop-color="#5EF7FF"/><stop offset="1" stop-color="#AA50FB"/></linearGradient><linearGradient id="z" x1="111.46" x2="114.726" y1="62.699" y2="70.485" gradientUnits="userSpaceOnUse"><stop stop-color="#5EF7FF"/><stop offset="1" stop-color="#AA50FB"/></linearGradient><linearGradient id="A" x1="131.923" x2="135.19" y1="62.699" y2="70.485" gradientUnits="userSpaceOnUse"><stop stop-color="#5EF7FF"/><stop offset="1" stop-color="#AA50FB"/></linearGradient><linearGradient id="B" x1="55.264" x2="63.079" y1="52.04" y2="55.236" gradientUnits="userSpaceOnUse"><stop stop-color="#5EF7FF"/><stop offset="1" stop-color="#AA50FB"/></linearGradient><linearGradient id="C" x1="80.962" x2="84.228" y1="53.255" y2="61.041" gradientUnits="userSpaceOnUse"><stop stop-color="#5EF7FF"/><stop offset="1" stop-color="#AA50FB"/></linearGradient><linearGradient id="D" x1="101.425" x2="104.691" y1="53.255" y2="61.041" gradientUnits="userSpaceOnUse"><stop stop-color="#5EF7FF"/><stop offset="1" stop-color="#AA50FB"/></linearGradient><linearGradient id="E" x1="121.888" x2="125.155" y1="53.255" y2="61.041" gradientUnits="userSpaceOnUse"><stop stop-color="#5EF7FF"/><stop offset="1" stop-color="#AA50FB"/></linearGradient><linearGradient id="F" x1="50.07" x2="53.336" y1="43.22" y2="51.006" gradientUnits="userSpaceOnUse"><stop stop-color="#5EF7FF"/><stop offset="1" stop-color="#AA50FB"/></linearGradient><linearGradient id="G" x1="69.598" x2="74.069" y1="42.639" y2="49.802" gradientUnits="userSpaceOnUse"><stop stop-color="#5EF7FF"/><stop offset="1" stop-color="#AA50FB"/></linearGradient><linearGradient id="H" x1="83.255" x2="91.698" y1="42.973" y2="42.935" gradientUnits="userSpaceOnUse"><stop stop-color="#5EF7FF"/><stop offset="1" stop-color="#AA50FB"/></linearGradient><linearGradient id="I" x1="111.46" x2="114.726" y1="43.22" y2="51.006" gradientUnits="userSpaceOnUse"><stop stop-color="#5EF7FF"/><stop offset="1" stop-color="#AA50FB"/></linearGradient><linearGradient id="J" x1="131.923" x2="135.19" y1="43.22" y2="51.006" gradientUnits="userSpaceOnUse"><stop stop-color="#5EF7FF"/><stop offset="1" stop-color="#AA50FB"/></linearGradient><linearGradient id="K" x1="52.756" x2="61.2" y1="33.529" y2="33.491" gradientUnits="userSpaceOnUse"><stop stop-color="#5EF7FF"/><stop offset="1" stop-color="#AA50FB"/></linearGradient><linearGradient id="L" x1="80.962" x2="84.228" y1="33.776" y2="41.561" gradientUnits="userSpaceOnUse"><stop stop-color="#5EF7FF"/><stop offset="1" stop-color="#AA50FB"/></linearGradient><linearGradient id="M" x1="101.425" x2="104.691" y1="33.776" y2="41.561" gradientUnits="userSpaceOnUse"><stop stop-color="#5EF7FF"/><stop offset="1" stop-color="#AA50FB"/></linearGradient><linearGradient id="N" x1="80.962" x2="84.228" y1="14.296" y2="22.082" gradientUnits="userSpaceOnUse"><stop stop-color="#5EF7FF"/><stop offset="1" stop-color="#AA50FB"/></linearGradient><linearGradient id="O" x1="101.425" x2="104.691" y1="14.296" y2="22.082" gradientUnits="userSpaceOnUse"><stop stop-color="#5EF7FF"/><stop offset="1" stop-color="#AA50FB"/></linearGradient><linearGradient id="P" x1="121.888" x2="125.155" y1="33.776" y2="41.561" gradientUnits="userSpaceOnUse"><stop stop-color="#5EF7FF"/><stop offset="1" stop-color="#AA50FB"/></linearGradient><linearGradient id="Q" x1="70.534" x2="73.8" y1="23.741" y2="31.527" gradientUnits="userSpaceOnUse"><stop stop-color="#5EF7FF"/><stop offset="1" stop-color="#AA50FB"/></linearGradient><linearGradient id="R" x1="89.587" x2="94.555" y1="22.863" y2="29.69" gradientUnits="userSpaceOnUse"><stop stop-color="#5EF7FF"/><stop offset="1" stop-color="#AA50FB"/></linearGradient><linearGradient id="S" x1="111.46" x2="114.726" y1="23.741" y2="31.527" gradientUnits="userSpaceOnUse"><stop stop-color="#5EF7FF"/><stop offset="1" stop-color="#AA50FB"/></linearGradient></defs></svg>