<svg xmlns="http://www.w3.org/2000/svg" width="588" height="55" fill="none"><path fill="#DEDEDE" d="M512.787 20.418 502 20.803l10.4 6.164 10.79-5.392z"/><path fill="#444041" d="m512.4 26.967-.385 12.328 6.164-8.477 5.011-9.243z"/><path fill="#ABAAAA" d="m512.015 39.295.385-12.328-10.4-6.164 4.62 9.63z"/><path fill="#DEDEDE" d="M540.526 11.56v10.399l1.541 10.403 5.392-10.788z"/><path fill="#444041" d="m559.403 20.802-11.944.773-5.392 10.787 8.859-5.396z"/><path fill="#ABAAAA" d="m547.459 21.575 11.944-.773-9.246-5.391-9.631-3.851zm-10.784-1.541-2.31-10.403-3.47-9.63-3.085 11.559z"/><path fill="#444041" d="m526.272 18.105 10.403 1.929-8.865-8.474-11.556 3.466z"/><path fill="#DEDEDE" d="m530.895 0-8.089 6.933-6.552 8.093 11.556-3.466z"/><path fill="#ABAAAA" d="m550.926 43.918.388-10.403-7.321 9.634 4.235 11.172z"/><path fill="#DEDEDE" d="m543.993 43.15 7.32-9.634-10.021 3.081-9.24 4.624z"/><path fill="#444041" d="m532.052 41.22 7.702 7.321 8.474 5.78-4.235-11.172zm1.922 9.247h-.387l-11.169-3.851-9.243 7.705 10.396-1.16 10.016-2.31z"/><path fill="#ABAAAA" d="m533.586 50.466-5.776-8.474-7.705-7.32 2.313 11.943zm0 .384h.388v-.384z"/><path fill="#DEDEDE" d="m513.175 54.32 9.243-7.704-2.313-11.944z"/><path fill="#000" d="M568.64 16.654v-.836h7.383v.836h-3.227V26h-.929v-9.346zm9.476-.836h1.074l3.694 8.87h.089l3.694-8.87h1.074V26h-.875v-8.218h-.08L583.351 26h-.845l-3.436-8.218h-.079V26h-.875zm-283.408 5.799h14.642v-2.313h-16.568V40.49h16.952v-1.926h-15.026v-8.09h14.254V28.55h-14.254zm57.015-2.313h-3.466l-9.25 18.49-9.24-18.49h-3.469V40.49h2.313V22.386l9.246 18.105h2.31l9.246-18.105V40.49h2.31zm23.5 2.313v-2.313h-16.564V40.49h16.949v-1.926h-14.635v-8.09h13.866V28.55h-13.866v-6.933zm31.203-2.313h-3.079l-9.247 18.49-9.63-18.49h-3.082V40.49h2.313V22.386l9.24 18.105h1.928l9.247-18.105V40.49h2.31zm18.88 11.172c2.694 0 4.235 1.54 4.235 4.238 0 2.695-1.541 3.851-5.004 3.851h-9.246v-8.09zm-.385-8.859c2.691-.388 3.855.769 4.236 3.079-.381 2.7-1.926 3.854-5.008 3.854h-8.858v-6.933zm.385-2.313h-11.944V40.49h11.559q6.931 0 6.933-5.777c0-3.082-1.541-5.007-4.242-5.395q3.47-1.153 3.47-4.623c0-3.467-1.925-5.392-5.776-5.392m47.769 2.314c3.082-.388 4.235.769 4.235 3.467s-1.541 4.235-4.235 4.235h-9.631v-7.702zm6.545 3.467c0-3.855-2.31-5.78-6.545-5.78h-11.56V40.49h1.929v-9.243h8.862c3.079 0 5.004 1.54 5.004 5.007 0 1.538 0 3.082.385 4.236h2.313l-.769-4.236c0-3.85-1.157-5.78-3.47-5.78 2.701-.768 3.851-2.694 3.851-5.391m-24.653-3.466v-2.313h-16.564V40.49h16.951v-1.926h-15.026v-8.09h14.251V28.55h-14.251v-6.933zM15.407 32.404H6.164l4.623-10.787zm-3.079-13.1H9.631L0 40.49h2.31l3.085-6.161h11.169l2.697 6.16h2.31zm39.68 6.164h1.925c-.384-4.239-3.082-6.549-8.861-6.549-5.777 0-8.475 1.926-8.475 6.164 0 2.698 2.698 4.623 7.706 5.777 5.392.387 7.705 1.928 8.09 3.854-.385 3.079-2.314 4.236-6.55 4.236-4.622 0-7.32-1.542-7.32-5.393h-2.31c.384 5.008 3.467 7.706 9.63 7.706 5.78 0 8.86-2.314 8.86-6.549 0-3.082-2.695-5.007-7.703-5.78-5.392-.769-7.705-2.313-7.705-4.238 0-2.695 1.926-3.851 5.777-3.851q6.358 0 6.936 4.623m16.567-3.851h8.09v-2.313H58.172v2.313h8.09v18.874h2.313zm25.038 10.787H84.37l4.62-10.787zm-3.082-13.1h-2.698L78.206 40.49h2.31l3.082-6.161h11.171l2.698 6.16h2.31zm26.198 2.313c2.694-.388 4.238.769 4.238 3.467s-1.544 4.235-4.623 4.235h-9.246v-7.702zm-.385-2.313h-11.172V40.49h1.926v-9.243h8.474c3.467 0 5.008 1.54 5.008 5.007l.772 4.236h2.31c-.385-.385-.769-1.926-.769-4.236 0-3.85-1.541-5.78-3.47-5.78 2.698-.768 3.854-2.694 3.854-5.391q0-5.781-6.933-5.78m37.366 13.101h-9.246l4.623-10.787zm-3.082-13.1h-2.694l-9.631 21.187h2.307l2.701-6.161h11.171l3.082 6.16h2.31zm16.183 0h-2.313V40.49h15.795v-1.926h-13.482zm20.415 0h-2.31V40.49h15.795v-1.926h-13.485zm20.418 0h-1.926V40.49h1.926zm78.205 7.317c-.387-5.004-3.854-7.702-10.018-7.702-3.851 0-6.545 1.541-8.859 3.851-1.541 1.926-2.697 4.239-2.697 7.32 0 7.318 3.854 10.788 11.556 11.173 6.164 0 9.631-3.082 10.403-8.474h-2.31c-.772 4.235-3.47 6.16-8.093 6.16-6.164 0-8.859-3.082-8.859-8.858 0-6.164 2.695-9.246 8.859-9.246q6.935 0 8.093 5.776zm-44.302-7.317h-2.698V40.49h2.31V22.77l14.642 17.72h2.694V19.304h-2.31v18.105zm-13.485 13.1h-9.247l4.624-10.787zm-3.467-13.1h-2.313l-9.631 21.187h2.314l2.694-6.161h11.175l2.694 6.16h2.698z"/></svg>