<svg xmlns="http://www.w3.org/2000/svg" width="411" height="536" fill="none"><path fill="url(#a)" d="M140.682 7.607V0h35.838v7.607h-13.359v36.03h-9.12V7.606z"/><path fill="url(#b)" d="M183.711 43.636h-9.886L188.889 0h11.889l15.043 43.636h-9.887l-10.93-33.664h-.341zm-.618-17.152h23.353v7.202h-23.353z"/><path fill="url(#c)" d="M220.173 43.636V0h17.216q4.964 0 8.459 1.896 3.494 1.875 5.326 5.22 1.854 3.324 1.854 7.67 0 4.348-1.875 7.671t-5.433 5.178q-3.537 1.854-8.566 1.854h-10.973v-7.394h9.482q2.663 0 4.389-.916 1.747-.937 2.6-2.578.873-1.663.873-3.814 0-2.173-.873-3.793-.853-1.64-2.6-2.535-1.747-.916-4.432-.916h-6.221v36.093z"/><path fill="url(#d)" d="M110.516 83.91v5.113H92.64v-5.114zm-13.082-7.842h6.371v30.959q0 1.854.554 2.791.554.917 1.427 1.257.895.32 1.939.32.768 0 1.343-.107.574-.106.894-.17l1.151 5.263q-.554.213-1.577.426-1.023.234-2.557.255-2.514.043-4.687-.894a8.04 8.04 0 0 1-3.516-2.898q-1.341-1.96-1.342-4.922z"/><path fill="url(#e)" d="M130.098 117.297q-4.603 0-8.033-2.109t-5.327-5.902-1.896-8.864q0-5.093 1.896-8.906t5.327-5.924 8.033-2.109 8.032 2.11 5.327 5.923q1.896 3.813 1.896 8.906 0 5.071-1.896 8.864-1.896 3.792-5.327 5.902-3.43 2.109-8.032 2.109m.021-5.348q2.983 0 4.943-1.577t2.898-4.197q.959-2.62.959-5.774 0-3.132-.959-5.753-.938-2.643-2.898-4.24-1.96-1.599-4.943-1.598-3.005 0-4.986 1.598-1.96 1.597-2.919 4.24-.937 2.62-.937 5.753 0 3.153.937 5.774.958 2.62 2.919 4.197 1.981 1.577 4.986 1.577"/><path fill="url(#f)" d="M167.055 116.636V73h6.37v16.215h.384q.554-1.023 1.598-2.366t2.898-2.343q1.854-1.023 4.9-1.023 3.963 0 7.074 2.003t4.879 5.774q1.79 3.771 1.79 9.077 0 5.305-1.768 9.098-1.769 3.771-4.858 5.816-3.09 2.025-7.053 2.025-2.982 0-4.879-1.002-1.875-1.001-2.94-2.344-1.067-1.341-1.641-2.386h-.533v5.092zm6.243-16.363q0 3.451 1.001 6.051 1.002 2.6 2.898 4.069 1.896 1.449 4.645 1.449 2.855 0 4.772-1.512 1.918-1.535 2.898-4.155 1.002-2.621 1.002-5.902 0-3.24-.981-5.817-.959-2.578-2.897-4.07-1.918-1.491-4.794-1.491-2.77 0-4.688 1.427-1.896 1.428-2.876 3.985t-.98 5.966"/><path fill="url(#g)" d="M216.987 117.297q-4.602 0-8.032-2.109t-5.327-5.902q-1.896-3.793-1.896-8.864 0-5.093 1.896-8.906t5.327-5.924q3.43-2.109 8.032-2.109t8.033 2.11q3.43 2.109 5.327 5.923t1.896 8.906q0 5.071-1.896 8.864-1.896 3.792-5.327 5.902-3.43 2.109-8.033 2.109m.022-5.348q2.982 0 4.943-1.577t2.898-4.197q.958-2.62.958-5.774 0-3.132-.958-5.753-.938-2.643-2.898-4.24-1.96-1.599-4.943-1.598-3.005 0-4.986 1.598-1.96 1.597-2.919 4.24-.938 2.62-.938 5.753 0 3.153.938 5.774.958 2.62 2.919 4.197 1.981 1.577 4.986 1.577"/><path fill="url(#h)" d="M252.24 117.297q-4.602 0-8.033-2.109t-5.327-5.902-1.896-8.864q0-5.093 1.896-8.906 1.897-3.814 5.327-5.924 3.43-2.109 8.033-2.109t8.032 2.11q3.43 2.109 5.327 5.923t1.896 8.906q0 5.071-1.896 8.864-1.896 3.792-5.327 5.902-3.43 2.109-8.032 2.109m.021-5.348q2.983 0 4.943-1.577t2.898-4.197q.959-2.62.959-5.774 0-3.132-.959-5.753-.937-2.643-2.898-4.24-1.96-1.599-4.943-1.598-3.005 0-4.986 1.598-1.96 1.597-2.919 4.24-.937 2.62-.937 5.753 0 3.153.937 5.774.959 2.62 2.919 4.197 1.982 1.577 4.986 1.577"/><path fill="url(#i)" d="m279.566 105.536-.043-7.778h1.108l13.04-13.849h7.628l-14.872 15.767h-1.002zm-5.859 11.1V73h6.37v43.636zm20.667 0-11.719-15.554 4.39-4.453 15.149 20.007z"/><path fill="url(#j)" d="m78.274 189.636-9.631-32.727h6.584l6.413 24.034h.32l6.434-24.034h6.584l6.392 23.928h.32l6.371-23.928h6.583l-9.609 32.727h-6.498l-6.648-23.629h-.49l-6.648 23.629z"/><path fill="url(#k)" d="M119.79 189.636v-32.727h6.371v32.727zm3.218-37.777q-1.662 0-2.856-1.108-1.171-1.128-1.171-2.684 0-1.576 1.171-2.685 1.194-1.13 2.856-1.129t2.833 1.129q1.194 1.108 1.194 2.685 0 1.556-1.194 2.684-1.171 1.108-2.833 1.108"/><path fill="url(#l)" d="M149.109 156.909v5.114h-17.877v-5.114zm-13.083-7.841h6.371v30.959q0 1.854.554 2.791.554.917 1.428 1.257.894.32 1.938.32.767 0 1.343-.107.575-.106.895-.17l1.15 5.263q-.554.213-1.576.426-1.023.234-2.557.255-2.514.043-4.688-.894a8.03 8.03 0 0 1-3.515-2.898q-1.343-1.96-1.343-4.922z"/><path fill="url(#m)" d="M162.33 170.205v19.431h-6.371V146h6.285v16.236h.405q1.15-2.643 3.516-4.198t6.179-1.555q3.366 0 5.881 1.385 2.535 1.385 3.92 4.133 1.406 2.728 1.406 6.819v20.816h-6.37v-20.049q0-3.601-1.854-5.583-1.854-2.003-5.156-2.003-2.258 0-4.049.959-1.768.959-2.791 2.813-1 1.832-1.001 4.432"/><path fill="url(#n)" d="M210.159 201.909q-1.428 0-2.6-.234-1.171-.214-1.747-.469l1.534-5.22q1.748.468 3.111.405 1.364-.064 2.408-1.023 1.065-.959 1.875-3.132l.788-2.174-11.975-33.153h6.819l8.288 25.398h.341l8.288-25.398h6.84l-13.487 37.095q-.938 2.557-2.387 4.326-1.449 1.79-3.452 2.684-2.002.895-4.644.895"/><path fill="url(#o)" d="M251.888 190.297q-4.602 0-8.032-2.109t-5.327-5.902q-1.896-3.793-1.896-8.864 0-5.093 1.896-8.906t5.327-5.924q3.43-2.109 8.032-2.109t8.033 2.109q3.43 2.11 5.327 5.924 1.896 3.813 1.896 8.906 0 5.071-1.896 8.864-1.897 3.792-5.327 5.902-3.43 2.109-8.033 2.109m.022-5.348q2.982 0 4.943-1.577t2.897-4.197q.96-2.62.959-5.774 0-3.132-.959-5.753-.937-2.643-2.897-4.24-1.96-1.599-4.943-1.598-3.004 0-4.986 1.598-1.96 1.597-2.919 4.24-.938 2.62-.938 5.753 0 3.153.938 5.774.959 2.62 2.919 4.197 1.982 1.577 4.986 1.577"/><path fill="url(#p)" d="M294.087 176.064v-19.155h6.392v32.727h-6.265v-5.667h-.34q-1.13 2.62-3.623 4.368-2.471 1.725-6.157 1.725-3.154 0-5.583-1.384-2.408-1.407-3.792-4.155-1.364-2.749-1.364-6.797v-20.817h6.371v20.05q0 3.345 1.853 5.327 1.854 1.981 4.816 1.981 1.79 0 3.558-.895 1.79-.894 2.962-2.706 1.193-1.81 1.172-4.602"/><path fill="url(#q)" d="M308.139 189.636v-32.727h6.157v5.199h.341q.895-2.641 3.154-4.155 2.28-1.534 5.156-1.534.596 0 1.406.043.83.042 1.3.106v6.094q-.383-.107-1.364-.234-.98-.15-1.96-.15-2.259 0-4.027.959a7.1 7.1 0 0 0-2.77 2.621q-1.023 1.662-1.023 3.793v19.985z"/><path fill="url(#r)" d="M0 274.909v-45h6.222v5.305h.532q.555-1.022 1.598-2.365 1.044-1.342 2.898-2.343 1.854-1.023 4.9-1.023 3.964 0 7.074 2.003t4.88 5.774q1.79 3.771 1.79 9.077 0 5.305-1.769 9.098-1.768 3.771-4.858 5.816-3.09 2.025-7.052 2.025-2.985 0-4.88-1.002-1.875-1.001-2.94-2.344t-1.64-2.386H6.37v17.365zm6.243-28.636q0 3.452 1.001 6.051 1.002 2.6 2.898 4.069 1.896 1.449 4.645 1.449 2.854 0 4.773-1.512 1.917-1.534 2.897-4.155 1.002-2.621 1.002-5.902 0-3.239-.98-5.817-.96-2.578-2.898-4.07-1.917-1.491-4.794-1.491-2.77 0-4.688 1.427-1.896 1.428-2.876 3.985t-.98 5.966"/><path fill="url(#s)" d="M50.236 263.297q-4.836 0-8.33-2.067-3.474-2.088-5.37-5.859-1.875-3.793-1.875-8.885 0-5.028 1.875-8.864 1.897-3.835 5.284-5.987 3.41-2.152 7.969-2.152 2.769 0 5.37.916a13 13 0 0 1 4.665 2.877q2.067 1.96 3.26 5.092 1.194 3.11 1.194 7.564v2.258H38.262v-4.772h19.773q0-2.515-1.023-4.454a7.74 7.74 0 0 0-2.876-3.089q-1.833-1.13-4.305-1.129-2.685 0-4.687 1.321a8.86 8.86 0 0 0-3.068 3.409q-1.065 2.088-1.065 4.538v3.729q0 3.28 1.15 5.582 1.172 2.301 3.26 3.516 2.088 1.193 4.88 1.193 1.81 0 3.302-.511a7.1 7.1 0 0 0 2.578-1.577q1.086-1.044 1.662-2.578l6.03 1.087a10.9 10.9 0 0 1-2.6 4.666q-1.853 1.982-4.666 3.089-2.79 1.087-6.37 1.087"/><path fill="url(#t)" d="M70.446 262.636v-32.727h6.158v5.199h.34q.895-2.641 3.154-4.155 2.28-1.534 5.156-1.534.597 0 1.407.043.83.042 1.3.106v6.094q-.383-.107-1.364-.234-.98-.15-1.96-.15-2.26 0-4.028.959a7.1 7.1 0 0 0-2.77 2.621q-1.022 1.662-1.022 3.793v19.985z"/><path fill="url(#u)" d="m117.098 237.899-5.775 1.023a6.8 6.8 0 0 0-1.15-2.11q-.767-1-2.088-1.64t-3.303-.639q-2.706 0-4.517 1.214-1.81 1.193-1.81 3.09 0 1.64 1.214 2.642 1.214 1 3.92 1.64l5.199 1.193q4.517 1.045 6.733 3.218t2.216 5.646q0 2.94-1.705 5.242-1.683 2.28-4.709 3.579-3.004 1.3-6.967 1.3-5.498 0-8.97-2.344-3.473-2.365-4.261-6.712l6.157-.937q.576 2.408 2.365 3.643 1.79 1.215 4.666 1.215 3.133 0 5.008-1.3 1.875-1.32 1.875-3.217 0-1.534-1.151-2.578-1.129-1.044-3.473-1.577l-5.54-1.214q-4.58-1.044-6.775-3.324-2.174-2.28-2.174-5.774 0-2.898 1.62-5.071 1.619-2.174 4.474-3.388 2.856-1.236 6.541-1.236 5.305 0 8.353 2.301 3.046 2.28 4.027 6.115"/><path fill="url(#v)" d="M137.627 263.297q-4.602 0-8.033-2.109t-5.326-5.902q-1.897-3.793-1.897-8.864 0-5.093 1.897-8.906 1.896-3.814 5.326-5.924 3.43-2.109 8.033-2.109t8.033 2.109q3.43 2.11 5.326 5.924 1.897 3.813 1.897 8.906 0 5.071-1.897 8.864-1.896 3.792-5.326 5.902-3.43 2.109-8.033 2.109m.021-5.348q2.984 0 4.943-1.577 1.96-1.576 2.898-4.197.959-2.62.959-5.774 0-3.132-.959-5.753-.938-2.643-2.898-4.24-1.96-1.599-4.943-1.598-3.005 0-4.986 1.598-1.959 1.597-2.919 4.24-.937 2.62-.937 5.753 0 3.153.937 5.774.96 2.62 2.919 4.197 1.982 1.577 4.986 1.577"/><path fill="url(#w)" d="M165.464 243.205v19.431h-6.37v-32.727h6.115v5.327h.405q1.128-2.6 3.537-4.176 2.428-1.577 6.115-1.577 3.345 0 5.859 1.406 2.514 1.385 3.899 4.134 1.385 2.748 1.385 6.797v20.816h-6.371v-20.049q0-3.559-1.853-5.561-1.854-2.025-5.093-2.025-2.216 0-3.941.959-1.705.959-2.706 2.813-.981 1.832-.981 4.432"/><path fill="url(#x)" d="M203.577 263.361q-3.111 0-5.625-1.151-2.514-1.171-3.984-3.388-1.449-2.216-1.449-5.433 0-2.77 1.065-4.559a7.86 7.86 0 0 1 2.877-2.834q1.811-1.044 4.048-1.577a40 40 0 0 1 4.56-.81l4.772-.554q1.833-.234 2.664-.745.831-.512.831-1.662v-.149q0-2.792-1.577-4.326-1.555-1.534-4.645-1.534-3.217 0-5.071 1.428-1.832 1.406-2.535 3.132l-5.988-1.364q1.067-2.983 3.111-4.815a12.6 12.6 0 0 1 4.752-2.685 18.6 18.6 0 0 1 5.646-.852q1.96 0 4.155.469 2.216.447 4.133 1.662 1.94 1.214 3.175 3.473 1.236 2.237 1.236 5.816v21.733h-6.222v-4.474h-.255q-.618 1.236-1.854 2.429t-3.175 1.981-4.645.789m1.385-5.114q2.642 0 4.517-1.044 1.896-1.044 2.877-2.727a7.1 7.1 0 0 0 1.001-3.644v-4.218q-.341.34-1.321.639-.959.276-2.195.49-1.235.191-2.407.362-1.172.15-1.96.256a15.8 15.8 0 0 0-3.388.788q-1.513.554-2.429 1.598-.895 1.023-.895 2.727 0 2.365 1.747 3.58 1.747 1.193 4.453 1.193"/><path fill="url(#y)" d="M233.684 219v43.636h-6.371V219z"/><path fill="url(#z)" d="M265.858 263.361q-3.111 0-5.625-1.151-2.514-1.171-3.985-3.388-1.449-2.216-1.449-5.433 0-2.77 1.066-4.559a7.86 7.86 0 0 1 2.876-2.834q1.812-1.044 4.049-1.577a40 40 0 0 1 4.559-.81l4.773-.554q1.832-.234 2.663-.745.831-.512.831-1.662v-.149q0-2.792-1.576-4.326-1.556-1.534-4.645-1.534-3.218 0-5.071 1.428-1.833 1.406-2.536 3.132l-5.987-1.364q1.065-2.983 3.111-4.815a12.6 12.6 0 0 1 4.751-2.685 18.6 18.6 0 0 1 5.646-.852q1.96 0 4.155.469a12.2 12.2 0 0 1 4.134 1.662q1.938 1.214 3.175 3.473 1.235 2.237 1.235 5.816v21.733h-6.221v-4.474h-.256q-.618 1.236-1.854 2.429t-3.174 1.981q-1.94.789-4.645.789m1.385-5.114q2.642 0 4.517-1.044 1.896-1.044 2.876-2.727a7.1 7.1 0 0 0 1.002-3.644v-4.218q-.342.34-1.321.639-.96.276-2.195.49-1.236.191-2.408.362-1.171.15-1.96.256a15.8 15.8 0 0 0-3.388.788q-1.512.554-2.429 1.598-.894 1.023-.895 2.727 0 2.365 1.748 3.58 1.747 1.193 4.453 1.193"/><path fill="url(#A)" d="M303.315 275.591q-3.899 0-6.711-1.023-2.791-1.023-4.56-2.706t-2.642-3.686l5.476-2.258q.575.937 1.534 1.981.98 1.065 2.642 1.811 1.683.746 4.325.746 3.623 0 5.987-1.768 2.366-1.748 2.366-5.583v-6.435h-.405q-.576 1.045-1.662 2.323-1.065 1.278-2.941 2.216-1.875.937-4.879.937-3.878 0-6.988-1.811-3.09-1.832-4.901-5.39-1.79-3.58-1.79-8.8t1.769-8.949q1.79-3.729 4.9-5.71 3.111-2.003 7.053-2.003 3.047 0 4.922 1.023 1.875 1.001 2.919 2.343 1.065 1.343 1.64 2.365h.469v-5.305h6.243v33.452q0 4.218-1.96 6.925-1.96 2.705-5.306 4.005-3.324 1.3-7.5 1.3m-.064-18.729q2.75 0 4.645-1.278 1.918-1.3 2.898-3.708 1.001-2.429 1.001-5.816 0-3.303-.98-5.817t-2.876-3.921q-1.896-1.427-4.688-1.427-2.875 0-4.794 1.491-1.917 1.47-2.897 4.006-.96 2.536-.959 5.668 0 3.217.98 5.646t2.898 3.793q1.938 1.363 4.772 1.363"/><path fill="url(#B)" d="M339.83 263.297q-4.836 0-8.331-2.067-3.473-2.088-5.369-5.859-1.875-3.793-1.875-8.885 0-5.028 1.875-8.864 1.896-3.835 5.284-5.987 3.41-2.152 7.969-2.152 2.77 0 5.369.916 2.6.916 4.666 2.877t3.26 5.092q1.193 3.11 1.193 7.564v2.258h-26.015v-4.772h19.772q0-2.515-1.022-4.454a7.74 7.74 0 0 0-2.877-3.089q-1.832-1.13-4.304-1.129-2.684 0-4.687 1.321a8.86 8.86 0 0 0-3.068 3.409q-1.066 2.088-1.066 4.538v3.729q0 3.28 1.151 5.582 1.172 2.301 3.26 3.516 2.088 1.193 4.879 1.193 1.81 0 3.303-.511a7.1 7.1 0 0 0 2.578-1.577q1.086-1.044 1.662-2.578l6.029 1.087a10.9 10.9 0 0 1-2.599 4.666q-1.854 1.982-4.666 3.089-2.792 1.087-6.371 1.087"/><path fill="url(#C)" d="M366.411 243.205v19.431h-6.371v-32.727h6.115v5.327h.405q1.13-2.6 3.537-4.176 2.428-1.577 6.115-1.577 3.345 0 5.859 1.406 2.514 1.385 3.899 4.134 1.385 2.748 1.385 6.797v20.816h-6.371v-20.049q0-3.559-1.853-5.561-1.853-2.025-5.093-2.025-2.216 0-3.941.959-1.706.959-2.706 2.813-.98 1.832-.98 4.432"/><path fill="url(#D)" d="M410.276 229.909v5.114H392.4v-5.114zm-13.082-7.841h6.371v30.959q0 1.854.554 2.791.554.917 1.427 1.257.895.32 1.939.32.767 0 1.342-.107.576-.106.895-.17l1.151 5.263q-.555.213-1.577.426-1.023.234-2.557.255-2.514.043-4.687-.894a8.04 8.04 0 0 1-3.516-2.898q-1.342-1.96-1.342-4.922z"/><path fill="#0BBCF3" fill-opacity=".81" d="M271.298 413.571c-.993 0-3.515.342-6.108 1.147-.661-8.815-8.053-15.787-17.04-15.787a17 17 0 0 0-10.697 3.77c-2.166-6.607-7.89-11.09-14.98-11.09-4.695 0-8.872 1.93-11.85 5.083l-.752-21.021c8.335-5.983 13.779-15.745 13.779-26.762 0-18.163-14.785-32.94-32.957-32.94s-32.958 14.777-32.958 32.94c0 12.63 7.173 23.576 17.641 29.095l1.104 51.565c-1.973 1.071-4.966 3.03-8.796 6.507-13.254 12.039-17.592 41.158-2.625 63.696 16.662 25.088 36.185 35.797 65.285 35.797 30.83 0 41.145-15.464 49.069-31.305 7.622-15.235 7.71-73.58 7.71-76.055.002-7.8-7.392-14.64-15.825-14.64m-106.236-64.66c0-14.127 11.498-25.62 25.633-25.62s25.633 11.493 25.633 25.62c0 6.667-2.597 12.706-6.794 17.263l-.529-14.823c0-10.433-7.351-18.3-17.099-18.3s-17.099 7.867-17.099 18.379l.381 17.79c-6.13-4.683-10.126-12.02-10.126-20.309m107.801 152.081c-7.46 14.913-15.807 27.259-42.517 27.259-26.698 0-43.843-9.423-59.181-32.525-8.938-13.459-12.817-41.275 1.448-54.234a53 53 0 0 1 4.052-3.345l.547 25.52c.044 2.02 1.655 3.677 3.74 3.582a3.664 3.664 0 0 0 3.584-3.738l-2.402-112.16c0-6.463 4.018-10.98 9.774-10.98 5.757 0 9.775 4.517 9.778 11.112l2.441 68.32a3.66 3.66 0 0 0 3.418 3.521c1.833.115 3.537-1.191 3.852-3.043l1.853-10.98q.051-.303.051-.61c0-5.563 3.945-9.76 9.177-9.76 5.9 0 8.588 5.059 8.588 9.76v7.32a3.66 3.66 0 0 0 3.662 3.66 3.66 3.66 0 0 0 3.662-3.66c0-5.382 4.38-9.76 9.765-9.76s9.765 4.378 9.765 9.76v15.86a3.662 3.662 0 0 0 7.324 0v-9.32c1.465-.713 4.336-1.662 6.059-1.662 4.37 0 8.501 3.558 8.501 7.32-.003 16.389-1.253 61.412-6.941 72.783"/><defs><linearGradient id="a" x1="464.379" x2="-70.577" y1="293.636" y2="254.803" gradientUnits="userSpaceOnUse"><stop stop-color="#5EF7FF"/><stop offset="1" stop-color="#AA50FB"/></linearGradient><linearGradient id="b" x1="464.379" x2="-70.577" y1="293.636" y2="254.803" gradientUnits="userSpaceOnUse"><stop stop-color="#5EF7FF"/><stop offset="1" stop-color="#AA50FB"/></linearGradient><linearGradient id="c" x1="464.379" x2="-70.577" y1="293.636" y2="254.803" gradientUnits="userSpaceOnUse"><stop stop-color="#5EF7FF"/><stop offset="1" stop-color="#AA50FB"/></linearGradient><linearGradient id="d" x1="464.379" x2="-70.577" y1="293.636" y2="254.803" gradientUnits="userSpaceOnUse"><stop stop-color="#5EF7FF"/><stop offset="1" stop-color="#AA50FB"/></linearGradient><linearGradient id="e" x1="464.379" x2="-70.577" y1="293.636" y2="254.803" gradientUnits="userSpaceOnUse"><stop stop-color="#5EF7FF"/><stop offset="1" stop-color="#AA50FB"/></linearGradient><linearGradient id="f" x1="464.379" x2="-70.577" y1="293.636" y2="254.803" gradientUnits="userSpaceOnUse"><stop stop-color="#5EF7FF"/><stop offset="1" stop-color="#AA50FB"/></linearGradient><linearGradient id="g" x1="464.379" x2="-70.577" y1="293.636" y2="254.803" gradientUnits="userSpaceOnUse"><stop stop-color="#5EF7FF"/><stop offset="1" stop-color="#AA50FB"/></linearGradient><linearGradient id="h" x1="464.379" x2="-70.577" y1="293.636" y2="254.803" gradientUnits="userSpaceOnUse"><stop stop-color="#5EF7FF"/><stop offset="1" stop-color="#AA50FB"/></linearGradient><linearGradient id="i" x1="464.379" x2="-70.577" y1="293.636" y2="254.803" gradientUnits="userSpaceOnUse"><stop stop-color="#5EF7FF"/><stop offset="1" stop-color="#AA50FB"/></linearGradient><linearGradient id="j" x1="464.379" x2="-70.577" y1="293.636" y2="254.803" gradientUnits="userSpaceOnUse"><stop stop-color="#5EF7FF"/><stop offset="1" stop-color="#AA50FB"/></linearGradient><linearGradient id="k" x1="464.379" x2="-70.577" y1="293.636" y2="254.803" gradientUnits="userSpaceOnUse"><stop stop-color="#5EF7FF"/><stop offset="1" stop-color="#AA50FB"/></linearGradient><linearGradient id="l" x1="464.379" x2="-70.577" y1="293.636" y2="254.803" gradientUnits="userSpaceOnUse"><stop stop-color="#5EF7FF"/><stop offset="1" stop-color="#AA50FB"/></linearGradient><linearGradient id="m" x1="464.379" x2="-70.577" y1="293.636" y2="254.803" gradientUnits="userSpaceOnUse"><stop stop-color="#5EF7FF"/><stop offset="1" stop-color="#AA50FB"/></linearGradient><linearGradient id="n" x1="464.379" x2="-70.577" y1="293.636" y2="254.803" gradientUnits="userSpaceOnUse"><stop stop-color="#5EF7FF"/><stop offset="1" stop-color="#AA50FB"/></linearGradient><linearGradient id="o" x1="464.379" x2="-70.577" y1="293.636" y2="254.803" gradientUnits="userSpaceOnUse"><stop stop-color="#5EF7FF"/><stop offset="1" stop-color="#AA50FB"/></linearGradient><linearGradient id="p" x1="464.379" x2="-70.577" y1="293.636" y2="254.803" gradientUnits="userSpaceOnUse"><stop stop-color="#5EF7FF"/><stop offset="1" stop-color="#AA50FB"/></linearGradient><linearGradient id="q" x1="464.379" x2="-70.577" y1="293.636" y2="254.803" gradientUnits="userSpaceOnUse"><stop stop-color="#5EF7FF"/><stop offset="1" stop-color="#AA50FB"/></linearGradient><linearGradient id="r" x1="464.379" x2="-70.577" y1="293.636" y2="254.803" gradientUnits="userSpaceOnUse"><stop stop-color="#5EF7FF"/><stop offset="1" stop-color="#AA50FB"/></linearGradient><linearGradient id="s" x1="464.379" x2="-70.577" y1="293.636" y2="254.803" gradientUnits="userSpaceOnUse"><stop stop-color="#5EF7FF"/><stop offset="1" stop-color="#AA50FB"/></linearGradient><linearGradient id="t" x1="464.379" x2="-70.577" y1="293.636" y2="254.803" gradientUnits="userSpaceOnUse"><stop stop-color="#5EF7FF"/><stop offset="1" stop-color="#AA50FB"/></linearGradient><linearGradient id="u" x1="464.379" x2="-70.577" y1="293.636" y2="254.803" gradientUnits="userSpaceOnUse"><stop stop-color="#5EF7FF"/><stop offset="1" stop-color="#AA50FB"/></linearGradient><linearGradient id="v" x1="464.379" x2="-70.577" y1="293.636" y2="254.803" gradientUnits="userSpaceOnUse"><stop stop-color="#5EF7FF"/><stop offset="1" stop-color="#AA50FB"/></linearGradient><linearGradient id="w" x1="464.379" x2="-70.577" y1="293.636" y2="254.803" gradientUnits="userSpaceOnUse"><stop stop-color="#5EF7FF"/><stop offset="1" stop-color="#AA50FB"/></linearGradient><linearGradient id="x" x1="464.379" x2="-70.577" y1="293.636" y2="254.803" gradientUnits="userSpaceOnUse"><stop stop-color="#5EF7FF"/><stop offset="1" stop-color="#AA50FB"/></linearGradient><linearGradient id="y" x1="464.379" x2="-70.577" y1="293.636" y2="254.803" gradientUnits="userSpaceOnUse"><stop stop-color="#5EF7FF"/><stop offset="1" stop-color="#AA50FB"/></linearGradient><linearGradient id="z" x1="464.379" x2="-70.577" y1="293.636" y2="254.803" gradientUnits="userSpaceOnUse"><stop stop-color="#5EF7FF"/><stop offset="1" stop-color="#AA50FB"/></linearGradient><linearGradient id="A" x1="464.379" x2="-70.577" y1="293.636" y2="254.803" gradientUnits="userSpaceOnUse"><stop stop-color="#5EF7FF"/><stop offset="1" stop-color="#AA50FB"/></linearGradient><linearGradient id="B" x1="464.379" x2="-70.577" y1="293.636" y2="254.803" gradientUnits="userSpaceOnUse"><stop stop-color="#5EF7FF"/><stop offset="1" stop-color="#AA50FB"/></linearGradient><linearGradient id="C" x1="464.379" x2="-70.577" y1="293.636" y2="254.803" gradientUnits="userSpaceOnUse"><stop stop-color="#5EF7FF"/><stop offset="1" stop-color="#AA50FB"/></linearGradient><linearGradient id="D" x1="464.379" x2="-70.577" y1="293.636" y2="254.803" gradientUnits="userSpaceOnUse"><stop stop-color="#5EF7FF"/><stop offset="1" stop-color="#AA50FB"/></linearGradient></defs></svg>